<svg width="156" height="156" viewBox="0 0 156 156" fill="none" xmlns="http://www.w3.org/2000/svg">
<circle cx="78" cy="78" r="78" fill="url(#paint0_linear)"/>
<path d="M118.169 131L37.1689 134C37.1689 134 36.2054 115.963 37.1689 109C37.857 104.027 39.951 101.515 40.1689 96.5C40.3655 91.9752 38.7729 89.5279 38.6689 85C38.5426 79.5028 41.6689 65.5 41.6689 65.5H113.669C113.669 65.5 117.745 78.6432 117.669 85C117.597 90.9735 114.384 94.0329 114.669 100C114.92 105.252 117.104 107.851 118.169 113C119.287 118.408 118.169 131 118.169 131Z" fill="url(#paint1_linear)"/>
<path d="M108.838 74.7537C111.973 67.7037 101.515 74.3754 98.9108 76.112C97.8871 71.4218 96.8379 69.4355 96.8378 81C96.8378 83.6278 95.4957 80.9798 96.8379 90.7537C97.3039 94.1473 95.3963 97.7083 95.8378 101.254C95.8378 108.771 97.3427 114.23 98.0385 118.418L98.3378 120.754L98.3378 127.092C98.1095 126.354 97.9098 125.027 98.3378 127.5C100.765 141.527 110.169 132.5 110.169 132.5L104.838 110.754C105.496 105.626 101.555 96.3763 102.338 91.7537C103.326 85.9224 107.8 77.0884 108.838 74.7537Z" fill="url(#paint2_linear)"/>
<path d="M101.317 144.018C98.5758 151.23 108.65 143.992 111.154 142.114C112.435 146.741 113.592 148.667 112.954 137.12C112.809 134.496 114.295 137.066 112.416 127.381C111.764 124.018 113.472 120.357 112.836 116.842C112.421 109.335 110.618 103.968 109.692 99.8243L109.264 97.5091L108.915 91.1808C109.184 91.9049 109.456 93.2191 108.892 90.7731C105.695 76.9016 96.8035 86.4331 96.8035 86.4331L103.326 107.852C102.951 113.009 107.397 122.027 106.87 126.686C106.205 132.562 102.225 141.63 101.317 144.018Z" fill="url(#paint3_linear)"/>
<path d="M39.8528 133.864C35.7197 140.38 47.0417 135.311 49.8717 133.974C50.1977 138.764 50.9449 140.882 52.638 129.442C53.0227 126.843 53.9627 129.659 54.0659 119.794C54.1018 116.368 56.5101 113.125 56.5924 109.553C57.693 102.116 57.0035 96.4965 56.9285 92.2513L56.9742 89.8974L57.9021 83.6277C58.02 84.391 58.0232 85.7331 57.9619 83.2237C57.6143 68.9928 46.9903 76.5455 46.9903 76.5455L49.0802 98.838C47.6783 103.814 50.2231 113.541 48.7716 117.999C46.9407 123.623 41.2216 131.707 39.8528 133.864Z" fill="url(#paint4_linear)"/>
<path d="M57.1689 132L62.6689 108.5H90.6689L97.6689 132L76.6689 142.5L57.1689 132Z" fill="url(#paint5_linear)"/>
<path d="M102.209 106.171C105.519 102.242 106.303 100.571 108.336 95.865C110.75 90.2776 110.462 86.4654 111.287 80.4408C112.662 70.3974 111.992 63.4616 111.835 55.5199C111.679 47.5782 105.404 46.232 102.209 39C97.5862 28.5358 94.3314 34.6288 83.6689 32.5C72.7491 30.3199 71.6059 30.097 62.6689 36.6724C55.9285 41.6315 45.556 33.8325 44.8278 44.349L42.9632 71.2781C42.9632 71.2781 43.2583 86.2572 47.2276 94.6662C50.4787 101.554 53.4335 105.054 59.0975 110.184C63.3487 114.034 63.7605 115.731 68.8892 118.326C71.654 119.724 73.8641 120.597 76.9425 120.983C80.6289 121.445 84.6078 121.765 87.6274 119.623C93.3201 115.585 96.8243 112.562 102.209 106.171Z" fill="url(#paint6_linear)"/>
<ellipse cx="68.5" cy="79" rx="4.5" ry="5" fill="black"/>
<ellipse cx="100.5" cy="79" rx="4.5" ry="5" fill="black"/>
<path d="M93.5 67L111.609 73.8793L107.476 69.7905L99.1484 65.2381L93.5 67Z" fill="#372E24"/>
<path d="M69.5875 70.8521L53.7064 76.3558L57.0373 72.4308L66.1529 67.6189L69.5875 70.8521Z" fill="#372E24"/>
<path d="M85.3509 71.5742C87.9805 69.4705 106.914 69.4801 108.492 71.5742C110.069 73.6682 110.069 84.1964 106.914 86.8261C103.758 89.4558 92.7139 89.9817 87.9805 86.8261C83.2471 83.6704 82.7212 73.6778 85.3509 71.5742Z" stroke="black"/>
<path d="M76.6689 75C76.6689 75 78.5946 74 80.1689 74C81.7431 74 83.6689 75 83.6689 75" stroke="black"/>
<path d="M75.346 71.5742C72.7164 69.4705 53.7829 69.4801 52.2052 71.5742C50.6275 73.6682 50.6275 84.1964 53.783 86.8261C56.9385 89.4558 67.983 89.9817 72.7164 86.8261C77.4498 83.6704 77.9757 73.6778 75.346 71.5742Z" stroke="black"/>
<path d="M75.346 71.5742C72.7164 69.4705 53.7829 69.4801 52.2052 71.5742C50.6275 73.6682 50.6275 84.1964 53.783 86.8261C56.9385 89.4558 67.983 89.9817 72.7164 86.8261C77.4498 83.6704 77.9757 73.6778 75.346 71.5742Z" fill="url(#paint7_linear)"/>
<path d="M85.3509 71.5742C87.9805 69.4705 106.914 69.4801 108.492 71.5742C110.069 73.6682 110.069 84.1964 106.914 86.8261C103.758 89.4558 92.7139 89.9817 87.9805 86.8261C83.2471 83.6704 82.7212 73.6778 85.3509 71.5742Z" fill="url(#paint8_linear)"/>
<path d="M72.0089 51.6554L64.8417 32C64.8417 32 40 33.9202 40 56.5C40 59.1278 42.3268 70.7261 43.669 80.5C44.135 83.8937 42.2274 87.4546 42.669 91C42.669 98.5178 44.1739 103.976 44.8696 108.165L45.169 110.5L44.4283 123.461C44.0572 124.829 43.8015 125.877 44.169 128C46.5963 142.027 47.669 129 47.669 129C47.669 129 50.0492 113.118 51.669 100.5C52.3272 95.3721 48.3858 86.1227 49.169 81.5C50.1568 75.6687 54.6308 66.8347 55.6689 64.5C59.2403 56.4681 72.0089 51.6554 72.0089 51.6554Z" fill="url(#paint9_linear)"/>
<path d="M71.6689 52L64.1689 32C64.1689 32 85.4721 20.5586 101.823 36.1303C106.929 40.9927 110.664 50.1505 113.169 57C116.137 65.1156 111.669 78.5 111.669 78.5C111.669 78.5 107.157 63.4092 98.669 59C90.8686 54.9479 71.6689 52 71.6689 52Z" fill="url(#paint10_linear)"/>
<path d="M76.6689 139L59.1689 126.5C59.1689 126.5 39.6266 125.112 32.1689 131.5C28.903 134.297 27 137 27 137C27 137 36.5 145.5 48 150C55.5 152.935 64.5 156 78.5 156C88.5 156 98 154 108 150C122.57 144.172 131.169 135 131.169 135C131.169 135 127.05 133.14 123.169 130.5C114.036 124.287 95.1689 126.5 95.1689 126.5L76.6689 139Z" fill="url(#paint11_linear)"/>
<path d="M105.5 104C102.87 104.37 99 106 99 106L100 107L107.5 110.5L109 122.5C109 122.5 111.021 123.98 113 125C114.647 125.848 118 127.5 118 127.5L124 141C124 141 126.446 139.182 129 137C133 133.583 137 129 137 129L131.5 121L125 112C125 112 120.192 108.84 117 107C114.88 105.778 111.5 104 111.5 104C111.5 104 107.82 103.673 105.5 104Z" fill="url(#paint12_linear)"/>
<path d="M104.282 116.092L107.506 114.216L111.029 114.172L114.097 117.035L113.368 121.684L112 124L104.905 123.335C104.905 123.335 103.047 122.798 102.799 121.814C102.568 120.896 103.736 119.579 103.736 119.579C103.736 119.579 102.88 118.873 102.774 118.237C102.606 117.227 104.282 116.092 104.282 116.092Z" fill="#DFBFAC"/>
<path d="M95 111C95 111 98.0689 107.725 100.5 108C104.247 108.424 105.371 113.731 105.5 117.5C105.642 121.635 104.546 126.133 100.5 127C98.3231 127.466 95 125.5 95 125.5" stroke="white" stroke-width="3"/>
<path d="M64 135V103.985C64 103.985 64 99 80 99C96 99 96 103.985 96 103.985V135H64Z" fill="url(#paint13_linear)"/>
<ellipse cx="80" cy="135.5" rx="16" ry="4.5" fill="url(#paint14_linear)"/>
<path d="M101.199 109.824L104.082 106.765L107.541 106L111 109.059V115.176L107.541 117.471L102.928 119C102.928 119 101.018 118.684 100.622 117.471C100.253 116.339 101.199 114.412 101.199 114.412C101.199 114.412 100.248 113.678 100.046 112.882C99.7248 111.619 101.199 109.824 101.199 109.824Z" fill="#E1C0AD"/>
<ellipse cx="77.6008" cy="56.4792" rx="59.6349" ry="13.2211" transform="rotate(-4.12761 77.6008 56.4792)" fill="url(#paint15_radial)"/>
<path d="M56.0491 17.0302C38.6915 18.2634 40.2021 59 40.2021 59C40.2021 59 64.5049 58.7447 78.9261 57.25C93.5101 55.7384 114.169 51.4199 114.169 51.4199C114.169 51.4199 111.974 18.8678 96.8567 18.7788C88.9732 18.7324 86.7903 27.0022 78.9261 27.522C69.0153 28.177 65.9562 16.3263 56.0491 17.0302Z" fill="url(#paint16_linear)"/>
<defs>
<linearGradient id="paint0_linear" x1="132.653" y1="9.0204" x2="16.9796" y2="134.245" gradientUnits="userSpaceOnUse">
<stop stop-color="#A5F0FA"/>
<stop offset="1" stop-color="#6CC5CB"/>
</linearGradient>
<linearGradient id="paint1_linear" x1="78.4548" y1="69" x2="78.4548" y2="127" gradientUnits="userSpaceOnUse">
<stop stop-color="#41372C"/>
<stop offset="1" stop-color="#13100D"/>
</linearGradient>
<linearGradient id="paint2_linear" x1="121.838" y1="51.7537" x2="92.8378" y2="80.2536" gradientUnits="userSpaceOnUse">
<stop stop-color="#51463B"/>
<stop offset="1" stop-color="#28211A"/>
</linearGradient>
<linearGradient id="paint3_linear" x1="89.6052" y1="167.7" x2="116.989" y2="137.644" gradientUnits="userSpaceOnUse">
<stop stop-color="#312A24"/>
<stop offset="1" stop-color="#362D24"/>
</linearGradient>
<linearGradient id="paint4_linear" x1="23.6256" y1="154.713" x2="56.4856" y2="130.766" gradientUnits="userSpaceOnUse">
<stop stop-color="#312A24"/>
<stop offset="1" stop-color="#362D24"/>
</linearGradient>
<linearGradient id="paint5_linear" x1="77.4189" y1="108.5" x2="77.4189" y2="132" gradientUnits="userSpaceOnUse">
<stop stop-color="#B69A8B"/>
<stop offset="1" stop-color="#E4C2AF"/>
</linearGradient>
<linearGradient id="paint6_linear" x1="80.3007" y1="31.4915" x2="74.1116" y2="120.877" gradientUnits="userSpaceOnUse">
<stop stop-color="#C0A494"/>
<stop offset="0.291667" stop-color="#9E8577"/>
<stop offset="0.609375" stop-color="#E0BEAA"/>
<stop offset="1" stop-color="#E4C3AF"/>
</linearGradient>
<linearGradient id="paint7_linear" x1="64.0447" y1="70" x2="64.0447" y2="89" gradientUnits="userSpaceOnUse">
<stop stop-color="white" stop-opacity="0"/>
<stop offset="0.927083" stop-color="white" stop-opacity="0.22"/>
</linearGradient>
<linearGradient id="paint8_linear" x1="96.6522" y1="70" x2="96.6522" y2="89" gradientUnits="userSpaceOnUse">
<stop stop-color="white" stop-opacity="0"/>
<stop offset="0.927083" stop-color="white" stop-opacity="0.22"/>
</linearGradient>
<linearGradient id="paint9_linear" x1="68.6688" y1="41.5" x2="39.6689" y2="70" gradientUnits="userSpaceOnUse">
<stop stop-color="#51463B"/>
<stop offset="1" stop-color="#41372C"/>
</linearGradient>
<linearGradient id="paint10_linear" x1="72.2962" y1="35.6321" x2="115.186" y2="57.7997" gradientUnits="userSpaceOnUse">
<stop stop-color="#52473C"/>
<stop offset="1" stop-color="#41372C"/>
</linearGradient>
<linearGradient id="paint11_linear" x1="79.9189" y1="126.117" x2="79.9189" y2="157.5" gradientUnits="userSpaceOnUse">
<stop stop-color="#F96262"/>
<stop offset="1" stop-color="#BE4545"/>
</linearGradient>
<linearGradient id="paint12_linear" x1="116.75" y1="103.855" x2="116.75" y2="142" gradientUnits="userSpaceOnUse">
<stop stop-color="#E4C2AE"/>
<stop offset="1" stop-color="#D0B4A4"/>
</linearGradient>
<linearGradient id="paint13_linear" x1="96" y1="115.062" x2="63.9986" y2="114.61" gradientUnits="userSpaceOnUse">
<stop stop-color="white"/>
<stop offset="1" stop-color="#D6D6D6"/>
</linearGradient>
<linearGradient id="paint14_linear" x1="96" y1="136" x2="64" y2="136" gradientUnits="userSpaceOnUse">
<stop stop-color="#E1E1E1"/>
<stop offset="1" stop-color="#C1C1C1"/>
</linearGradient>
<radialGradient id="paint15_radial" cx="0" cy="0" r="1" gradientUnits="userSpaceOnUse" gradientTransform="translate(77.6008 56.4792) rotate(90) scale(13.2211 59.6349)">
<stop stop-color="#E2E2E2"/>
<stop offset="1" stop-color="white"/>
</radialGradient>
<linearGradient id="paint16_linear" x1="77.1689" y1="17" x2="81.2416" y2="57.7261" gradientUnits="userSpaceOnUse">
<stop stop-color="white"/>
<stop offset="1" stop-color="#E9E9E9"/>
</linearGradient>
</defs>
</svg>
